<svg xmlns="http://www.w3.org/2000/svg" id="Layer_1" width="1054.43" height="1093.95" viewBox="0 0 1054.43 1093.95"><path d="M655.98,689.89l1.51-1.06c.41-.29.34-1.97-.16-1.96l-2.38.05c-.08-.25-.05-.68-.04-1,2.85.2-.91-9.87-1.84-7.92l-.04-.9,1.07-2.8c.26-.68-1.64-1.42-2.31-1.38l.1-1.93c.87.28,2.14-2.78,2.1-4.18-.03-.92-1.69-.54-2.94-.75-.04-.23-.08-.67-.11-.96,1.45-1.82,1.92-7.03-.86-7.46.04-.24.02-.66,0-.93,2.02-3.17,2.83-9.23-1.15-10.69.05-.8.04-2.42-.06-3.22,1.69-3.77,2.07-8.16,2.05-12.97l-.26-89.74c-.01-4.19-.45-7.95-.26-12.03l.35-7.31-.08-75.48v-7.73s.04-61.48.04-61.48c0-2.43-.4-4.78-.07-7.24.49-3.65.62-9.07-2.34-11.38-1.94-.54-6.21-1.07-8.26-.99l-13.38.53c-.92.04-2.67.67-2.8,1.11l-27.35-.1c27.67,44.8,33.82,102.25,19.59,152.05-26.67,93.37-119.85,138.12-212.5,123.95.72-25.57,14.24-46.68,39.2-54.01,20.95-6.15,38.47-1.9,59.94-2.88,11.8-.54,18.38-9.98,16.85-21.17-2.31-16.88,9.17-15.3,7.08-20.17l-2.19-5.13c1.54-1.58,3.77-3.72,4.63-5.13,1.96-3.2-6.28-14.36-.08-17.23,6.94-3.21,16-4.06,18.04-9.68.93-2.55.42-6.32-1-8.62l-16.55-26.75c-3.68-5.95-6.53-13.12-6.76-20.28-.8-24.94-7.67-48.46-22.33-68.53-17.26-23.62-43.24-37.94-72.51-39.92-54.23-3.68-99.59,30.84-109.67,83.87-5.07,26.63-.39,53.34,11.49,77.49,5.12,10.41,10.86,19.54,16.89,29.41,15.73,25.72,16.49,49.49-.24,75.04l-12.33,18.82c-10.98,16.77-11.09,38.4,7.31,47.28,7.12,3.43,15.63,6.4,23.49,6.44l.05,1.55c.06,2.17,37.88-.65,36.95-.62,24.77-.87,49.44-.3,74.79.1,51.84.81,108.16,10.32,152.18,38.84,59.03,38.24,77.44,104.63,65.16,171.5-11.16,57.36-49.97,98.71-101.41,123.71,100.3,1.15,199.88-36.44,282.96-89.3,38-24.18,72.2-51.98,105.61-83.09-9.99,26.79-24.1,49.92-40.67,72.21-29.34,39.48-65.36,73.18-106.47,100.53-69.92,46.53-151.08,75.73-235.1,83.53-176.45,16.38-351.38-63.39-465.28-196.57C27.47,771.14-17.61,607.57,6.22,446.2c12.72-86.09,45.89-167.61,97.39-237.49C166.29,123.66,254.16,61.03,354.75,28.71c112.97-36.31,233.15-38.99,346.71-3.39,130.34,40.86,237.07,131.07,297.55,253.71,42.11,85.38,60.86,180.88,54.07,275.88-3.03,42.42-12.77,83.33-28.87,122.26-10.32,24.96-23.76,47.47-40.99,68.03-29.76,35.54-70.3,58.55-115.96,66.26-25.03,4.23-49.89,3.26-74.34.14-61.47-7.86-124.03-59.86-136.94-121.7ZM740.72,169.1l.86,1.92,10.42-.09.59,15.78-1.76,1.16v30.12s1.76,1.15,1.76,1.15v15.57c.1-.68-1.72,1-1.72,1.87l-.04,43.15,1.76,1.4v6.57c-.74-.09-2.15,1.88-2.05,2.8.16,1.41,1.1,2.84,2.08,3.62.9.71,1.99,1.43,3.11,1.87.22,1.03,1.48,1.93,3.1,1.93h115.94s1.09-1.31,1.09-1.31c4.54.02,9.34,3.18,9.37,9.19l.22,43.7c-.57,5.89-4.43,10.27-10.79,10.28l-112.48.07-.23,250.87c-.01,13.8,1.28,26.31,3.62,39.48,5.43,30.67,22.79,56.44,54.04,64.91,23.06,6.25,47.15,5.5,70.06-1.45,38.29-11.63,59.18-44.48,71.35-80.66,21.62-64.27,20.68-139.24,7.2-205.4-15.28-75.05-48.91-145.05-98.81-202.96-66.34-76.98-157.65-127.44-258.56-141.88-78.21-11.19-158.95-1.3-232.47,27.54-155.83,61.12-255.74,207.54-269.58,372.65-4.37,52.07-.29,104.09,10.87,155.12,15.94,72.87,48.03,141.2,95.1,198.94,51.01,62.56,121.7,112.12,201.8,127.27,51.98,9.83,109.16,5.83,150.28-30.19,23.78-20.83,36.07-50.52,32.86-81.92-3.83-37.46-30.53-59.97-64.98-70.17-19.88-5.89-39.79-8.98-60.89-9.01l-106.94-.16c-12.5-.02-23.82,4.61-34.71,9.48-36.66,20.15-39.43,61.44-23.83,97.82-31.61-12.89-66.55-39.59-80.71-69.77-11.25-22.85,8.89-46.83,28.82-58.83-16.16-11.12-29.28-24.7-35.93-43.27-13.23-36.93-1.38-78.08,28.77-102.92,7.86-6.47,15.98-11.01,25.09-16.04-37.65-27.41-60.83-67.81-65.95-112.93-9.15-80.64,33.89-156.82,107.39-191.12,25.76-12.02,53.36-19.05,82.24-20.96,27.05-1.79,53.06-.37,79.93,3.45,23.92,3.4,46.99,4.99,71.06,3.52,26.62-1.63,51.18-10.07,73.41-24.73,29.4-19.38,52.25-45.78,68.53-77.43l49.72-.03Z" fill="#ea5f2f"></path><circle cx="395.76" cy="410.28" r="33.72" fill="#ea5f2f"></circle><circle cx="434.7" cy="467.86" r="18.45" fill="#ea5f2f"></circle><path d="M648.87,642.82c-.74-6.06-.94-17.59-.93-25.03l.3-258.92c-7.78-1.8-21.05,1.5-24.39-.76.13-.43,1.88-1.07,2.8-1.11l13.38-.53c2.06-.08,6.33.45,8.26.99,2.96,2.31,2.83,7.73,2.34,11.38-.33,2.46.07,4.81.07,7.24l-.05,61.48v7.73s.09,75.48.09,75.48l-.35,7.31c-.19,4.07.25,7.84.26,12.03l.26,89.74c.01,4.81-.36,9.2-2.05,12.97Z" fill="#ea5f2f"></path><circle cx="467.49" cy="501.61" r="10.96" fill="#ea5f2f"></circle><path d="M401.86,673.8c.93-.03-29.59,11.89-36.95.62l-.05-1.55,32.03.18c1.27,0,3.88.62,4.97.76Z" fill="#ea5f2f"></path><path d="M650.09,656.73c-.92-2.96-1.32-7.98-1.15-10.69,3.98,1.46,3.17,7.52,1.15,10.69Z" fill="#ea5f2f"></path><path d="M654.9,685.92c-.85-2.09-1.76-5.88-1.84-7.92.93-1.95,4.69,8.11,1.84,7.92Z" fill="#ea5f2f"></path><path d="M650.94,665.11c-1.18-1.61-1.16-5.55-.86-7.46,2.79.43,2.31,5.64.86,7.46Z" fill="#ea5f2f"></path><path d="M651.89,671l-.84-4.93c1.25.21,2.91-.17,2.94.75.04,1.4-1.23,4.46-2.1,4.18Z" fill="#ea5f2f"></path><path d="M653.03,677.11c-.74-.53-1.31-2.87-1.24-4.18.67-.04,2.57.7,2.31,1.38l-1.07,2.8Z" fill="#ea5f2f"></path><path d="M655.98,689.89c-.16-.77-.79-2.2-1.03-2.97l2.38-.05c.5-.01.58,1.68.16,1.96l-1.51,1.06Z" fill="#ea5f2f"></path><path d="M875.86,296.63l-1.09,1.31h-115.94c-1.63,0-2.88-.9-3.1-1.93l120.13.62Z" fill="#ea5f2f"></path><path d="M752.6,234.72v46.43s-1.76-1.4-1.76-1.4l.04-43.15c0-.87,1.82-2.55,1.72-1.87Z" fill="#ea5f2f"></path><polygon points="752.59 186.71 752.59 219.15 750.83 217.99 750.83 187.87 752.59 186.71" fill="#ea5f2f"></polygon><path d="M752,170.93l-10.42.09-.86-1.92,10-.18c.53,0,1.26,1.48,1.28,2.01Z" fill="#ea5f2f"></path><path d="M752.6,287.73l.02,6.41c-.98-.78-1.92-2.2-2.08-3.62-.1-.92,1.3-2.89,2.06-2.8Z" fill="#ea5f2f"></path></svg>