<svg xmlns="http://www.w3.org/2000/svg" version="1.1" id="Layer_1" viewBox="0 0 186.5 175.5" width="186.5" height="175.5"><defs>
    <style>
      .st0 {
        fill: #eb5f31;
      }
    </style>
  </defs><path class="st0" d="M37.2,105.7c-.5,3.9,1.6,7.2,5.2,7.9s4.7,1.2,7.3,1.2l42.9.2c3.2,0,6.2.7,9.3,1.2,7.5,1.2,17.9,6.3,21.9,12.9,6.2,10.2,4.9,23.7-3.7,32.3-5,5-12.9,9.2-19.7,10.7s-9.1,2.3-13.9,2.5l-12.5.7c-5.7.3-11.3.3-16.9,0l-11.5-.6c-4.3-.2-8.5-1.3-12.7-2.2-7.4-1.6-14.1-4.5-20.4-8.5s-8.6-8.4-10.7-13.3-2.4-14.4.9-20.2,3.7-5.6,6.7-7.4,1.6-2.3.8-3.5c-4-6.6-3.4-14.4,3.2-18.8,4.3-2.9,8.9-4.9,14-6s8.6-1.4,4.9-2.5c-6-1.8-11.5-4.4-16.6-8s-4.2-3.7-6.1-5.8C-1.5,66.4-.2,46.7,12.5,35.9s7.1-4.7,11-6.5c8.6-4,19.3-6,28.8-6.9s6.1-.7,9.3-.7h29c0,.1,13,1,13,1l8.2.2c.5,0,.8,0,1.1-.2,1.5-.7-1.4-14.7,2.2-19.1S121,0,124.5,0h33.5c.7,0,1.1.7,1.1,1.3v19c0,1.1.9,1.7,1.9,1.6,6.9-.2,13.6-.2,20.5.1s2.2-.4,3.1.3.8,1.8.8,2.8c0,4.7-.2,9.1,0,13.8s-.2,1.2-.4,1.5-.7.5-1.4.5h-5.2c0-.1-18.5-.2-18.5-.2-.4,0-.7.2-.9.3s-.5.6-.4,1.1c.3,2.8.4,5.2.4,8.1v55.4c0,2.3.8,4.3,2.3,5.8,6.1,4.8,17.2,2.8,25.1,2.9-.2,7.4-.2,14.8,0,22.3,0,1.2-.7,1.9-1.8,2.1-3.6.4-7,1.2-10.7,1.4-13.4.6-28.4,0-38.1-10.4-1.6-1.7-3.2-3.4-4.7-5.3-4.9-6.5-6.8-16.6-6.8-24.8v-51.4c0-3.8.9-6.9-2-7.1s-13.8,0-13.2,1.1c4.3,7.8,4.4,18.5,1.3,26.9-6.8,18.7-23.9,24.8-42.2,27-3.1.4-6.2.3-9.3.7l-6.2.8c-5.9.8-14.7-.5-15.9,7.9ZM86.7,57.9c-.6-13.2-10.1-19-22.6-19s-12,1.2-16.4,5.7c-6.9,7.1-7.7,18.6-1.8,26.5s6.8,5.6,11,6.5,8.1.8,12.3.4c11.4-1.2,18-8.6,17.5-20.1ZM89.5,154.3c3.8-1.1,6.8-4.1,7.3-8.1s-2.3-8.4-6.4-9.6-5.8-1.6-8.9-1.6h-40.9c-2.7,0-5.5.8-7.5,2.4-4.2,3.3-4.5,9.2-.9,13s3.1,3,5.2,3.8c5.6,2.1,19.3,2.9,25.7,2.7,11.2-.3,15,.9,26.4-2.5Z"></path></svg>