<?xml version="1.0" encoding="UTF-8"?><svg id="Layer_1" xmlns="http://www.w3.org/2000/svg" width="1054.43" height="1093.949" viewBox="0 0 1054.43 1093.949"><path d="M655.981,689.893l1.511-1.057c.412-.288.339-1.974-.163-1.964l-2.383.047c-.079-.249-.049-.681-.045-1,2.85.196-.908-9.866-1.84-7.916l-.037-.895,1.072-2.795c.259-.676-1.637-1.422-2.308-1.38l.105-1.929c.868.275,2.144-2.784,2.1-4.182-.029-.921-1.686-.54-2.94-.749-.04-.234-.078-.67-.11-.958,1.446-1.822,1.922-7.025-.864-7.457.037-.237.017-.665.005-.927,2.016-3.173,2.827-9.234-1.152-10.693.05-.804.038-2.418-.06-3.218,1.689-3.775,2.068-8.156,2.054-12.971l-.264-89.736c-.012-4.189-.455-7.953-.261-12.025l.347-7.311-.082-75.479-.005-7.734.048-61.475c.002-2.429-.4-4.783-.07-7.242.49-3.648.623-9.067-2.337-11.379-1.936-.539-6.208-1.068-8.263-.987l-13.377.525c-.919.036-2.672.674-2.803,1.106l-27.348-.101c27.671,44.799,33.819,102.245,19.594,152.054-26.666,93.371-119.847,138.116-212.497,123.95.724-25.574,14.235-46.68,39.199-54.012,20.946-6.152,38.473-1.903,59.94-2.876,11.803-.535,18.382-9.982,16.854-21.173-2.306-16.883,9.168-15.298,7.083-20.172l-2.194-5.128c1.544-1.577,3.766-3.717,4.629-5.129,1.956-3.202-6.284-14.365-.084-17.231,6.937-3.207,16-4.056,18.044-9.683.925-2.548.417-6.324-1.001-8.616l-16.553-26.75c-3.681-5.949-6.526-13.121-6.756-20.284-.801-24.941-7.665-48.459-22.332-68.527-17.261-23.616-43.235-37.938-72.513-39.924-54.231-3.679-99.587,30.838-109.674,83.874-5.065,26.631-.385,53.34,11.488,77.488,5.117,10.407,10.862,19.545,16.894,29.408,15.725,25.717,16.491,49.488-.243,75.045l-12.325,18.823c-10.983,16.773-11.094,38.402,7.308,47.276,7.12,3.434,15.634,6.399,23.489,6.442l.046,1.555c.063,2.167,37.883-.648,36.954-.615,24.772-.869,49.438-.298,74.787.099,51.836.81,108.16,10.315,152.184,38.836,59.032,38.244,77.436,104.632,65.163,171.5-11.161,57.36-49.972,98.709-101.409,123.709,100.301,1.146,199.883-36.444,282.96-89.301,38.004-24.18,72.201-51.978,105.605-83.094-9.992,26.787-24.101,49.92-40.668,72.213-29.336,39.477-65.365,73.18-106.473,100.535-69.925,46.53-151.078,75.728-235.103,83.527-176.447,16.378-351.377-63.393-465.284-196.571C27.466,771.143-17.61,607.568,6.224,446.197c12.715-86.089,45.887-167.609,97.391-237.49C166.294,123.662,254.162,61.033,354.745,28.709c112.971-36.305,233.155-38.992,346.71-3.393,130.335,40.86,237.065,131.07,297.546,253.709,42.107,85.382,60.859,180.882,54.07,275.879-3.031,42.421-12.773,83.331-28.868,122.257-10.319,24.956-23.761,47.466-40.985,68.034-29.758,35.536-70.298,58.551-115.957,66.263-25.027,4.227-49.893,3.264-74.337.14-61.474-7.857-124.032-59.857-136.944-121.704ZM740.722,169.1l.861,1.918,10.417-.086.591,15.782-1.756,1.159v30.119s1.759,1.155,1.759,1.155l.005,15.575c.097-.676-1.724.999-1.725,1.869l-.039,43.154,1.756,1.405.01,6.575c-.754-.09-2.163,1.881-2.058,2.799.161,1.415,1.101,2.838,2.082,3.615.898.711,1.991,1.426,3.11,1.871.219,1.034,1.476,1.934,3.103,1.934l115.938-.004,1.085-1.311c4.536.023,9.336,3.179,9.367,9.189l.222,43.703c-.573,5.887-4.429,10.272-10.79,10.276l-112.476.067-.232,250.871c-.013,13.795,1.283,26.306,3.615,39.484,5.428,30.673,22.792,56.441,54.035,64.908,23.062,6.25,47.148,5.504,70.059-1.454,38.29-11.629,59.184-44.482,71.353-80.656,21.62-64.267,20.676-139.235,7.2-205.403-15.285-75.048-48.908-145.053-98.809-202.965-66.335-76.984-157.652-127.439-258.562-141.879-78.211-11.192-158.951-1.297-232.471,27.542-155.829,61.125-255.741,207.54-269.584,372.653-4.366,52.073-.291,104.089,10.873,155.117,15.942,72.873,48.026,141.2,95.104,198.937,51.007,62.555,121.704,112.119,201.801,127.27,51.979,9.832,109.159,5.831,150.275-30.185,23.777-20.828,36.068-50.524,32.862-81.917-3.825-37.464-30.526-59.966-64.976-70.167-19.875-5.885-39.788-8.976-60.89-9.008l-106.941-.162c-12.502-.019-23.823,4.606-34.707,9.477-36.659,20.149-39.431,61.438-23.831,97.817-31.607-12.895-66.554-39.594-80.711-69.771-11.249-22.849,8.894-46.834,28.818-58.834-16.158-11.122-29.283-24.699-35.935-43.271-13.226-36.927-1.38-78.082,28.771-102.916,7.857-6.471,15.985-11.012,25.094-16.036-37.651-27.405-60.831-67.812-65.951-112.926-9.151-80.636,33.885-156.822,107.389-191.117,25.758-12.018,53.357-19.047,82.242-20.957,27.047-1.788,53.057-.367,79.932,3.45,23.922,3.397,46.985,4.995,71.059,3.52,26.615-1.631,51.178-10.073,73.407-24.727,29.402-19.383,52.249-45.784,68.532-77.426l49.717-.031Z" fill="#ea5f2f"/><circle cx="395.764" cy="410.276" r="33.725" fill="#ea5f2f"/><circle cx="434.702" cy="467.856" r="18.455" fill="#ea5f2f"/><path d="M648.874,642.82c-.745-6.061-.937-17.589-.928-25.032l.304-258.919c-7.776-1.796-21.05,1.497-24.389-.758.13-.432,1.884-1.07,2.803-1.106l13.377-.525c2.055-.081,6.327.448,8.263.987,2.959,2.312,2.826,7.731,2.337,11.379-.33,2.459.072,4.813.07,7.242l-.048,61.475.005,7.734.082,75.479-.347,7.311c-.194,4.072.249,7.836.261,12.025l.264,89.736c.014,4.814-.365,9.196-2.054,12.971Z" fill="#ea5f2f"/><circle cx="467.489" cy="501.613" r="10.963" fill="#ea5f2f"/><path d="M401.861,673.804c.928-.033-29.587,11.892-36.954.615l-.046-1.555,32.03.175c1.266.007,3.876.624,4.97.764Z" fill="#ea5f2f"/><path d="M650.086,656.73c-.915-2.957-1.321-7.984-1.152-10.693,3.979,1.459,3.168,7.52,1.152,10.693Z" fill="#ea5f2f"/><path d="M654.903,685.919c-.851-2.093-1.756-5.88-1.84-7.916.932-1.95,4.69,8.112,1.84,7.916Z" fill="#ea5f2f"/><path d="M650.945,665.114c-1.182-1.605-1.165-5.55-.864-7.457,2.786.431,2.309,5.635.864,7.457Z" fill="#ea5f2f"/><path d="M651.895,671.003l-.84-4.932c1.253.21,2.91-.171,2.94.749.044,1.398-1.231,4.458-2.1,4.182Z" fill="#ea5f2f"/><path d="M653.026,677.108c-.739-.528-1.307-2.868-1.236-4.176.671-.041,2.567.705,2.308,1.38l-1.072,2.795Z" fill="#ea5f2f"/><path d="M655.981,689.893c-.161-.773-.788-2.196-1.034-2.974l2.383-.047c.502-.01.575,1.676.163,1.964l-1.511,1.057Z" fill="#ea5f2f"/><path d="M875.861,296.631l-1.085,1.311-115.938.004c-1.626,0-2.884-.901-3.103-1.934l120.126.619Z" fill="#ea5f2f"/><path d="M752.598,234.723l-.008,46.428-1.756-1.405.039-43.154c0-.87,1.821-2.545,1.725-1.869Z" fill="#ea5f2f"/><polygon points="752.59 186.715 752.593 219.148 750.834 217.993 750.834 187.874 752.59 186.715" fill="#ea5f2f"/><path d="M752,170.932l-10.417.086-.861-1.918,9.997-.176c.529-.009,1.261,1.479,1.281,2.008Z" fill="#ea5f2f"/><path d="M752.601,287.725l.024,6.415c-.981-.777-1.921-2.2-2.082-3.615-.105-.918,1.304-2.89,2.058-2.799Z" fill="#ea5f2f"/></svg>